<svg width="113" height="103" viewBox="0 0 113 103" fill="none" xmlns="http://www.w3.org/2000/svg">
<path fill-rule="evenodd" clip-rule="evenodd" d="M51.3236 43.6618V43.6936C51.3236 44.3653 50.7698 44.91 50.1072 44.91H49.3084C48.6367 44.91 48.092 44.3653 48.092 43.6936V43.6618C38.7151 47.8283 33.895 51.1325 31.3487 55.703C28.8706 60.1691 28.7072 65.5111 28.6981 73.7942H21.6768V59.6653L19.5345 58.3763L17.4013 57.0782L19.5345 55.7801L21.6768 54.4911V40.934L19.5345 39.636L17.4013 38.3379L19.5345 37.0489L21.6768 35.7509V21.522L17.542 19.2073L14.5465 17.5234C14.3422 17.6823 14.0881 17.7776 13.8112 17.7776H13.0124C12.7355 17.7776 12.4814 17.6823 12.268 17.5234L9.28612 19.2073L5.15137 21.522V35.7509L7.28456 37.0489L9.42682 38.3379L7.28456 39.636L5.15137 40.934V54.4911L7.28456 55.7801L9.42682 57.0782L7.28456 58.3763L5.15137 59.6653V77.0893L8.28307 80.212V61.2947L10.8429 59.815L13.4118 58.3445L15.9807 59.815L18.5496 61.2947V76.9169H34.6166H67.3906C67.4949 76.7671 67.613 76.6173 67.74 76.4675L70.6085 73.7307C70.5994 56.6606 70.0639 51.9903 51.3326 43.6573L51.3236 43.6618ZM8.27853 34.185V23.6008L10.8384 22.1211L13.4073 20.6415L15.9762 22.1211L18.5451 23.6008V34.185L15.9762 35.6646L13.4073 37.1442L10.8384 35.6646L8.27853 34.185ZM13.4027 56.1614L10.8338 54.6818L8.27399 53.2022V42.6179L10.8338 41.1383L13.4027 39.6587L15.9716 41.1383L18.5405 42.6179V53.2022L15.9716 54.6818L13.4027 56.1614ZM34.6075 73.7988H31.8298C31.8389 66.0013 31.9796 61.0042 34.0765 57.2189C36.2732 53.2884 40.7711 50.3019 49.6987 46.3714C66.9503 53.9783 67.4632 58.2129 67.4859 73.8033H34.6121L34.6075 73.7988Z" fill="white"/>
<path fill-rule="evenodd" clip-rule="evenodd" d="M13.6706 12.8035H13.1487C12.9354 12.8035 12.7447 12.7172 12.5995 12.5811C12.132 12.749 11.7961 13.1938 11.7961 13.7157V16.3164C11.7961 16.9791 12.3408 17.5237 13.0034 17.5237H13.8068C14.474 17.5237 15.0186 16.9791 15.0186 16.3164V13.7157C15.0186 13.1938 14.6828 12.749 14.2153 12.5811C14.07 12.7172 13.8794 12.8035 13.6661 12.8035H13.6706Z" fill="white"/>
<path fill-rule="evenodd" clip-rule="evenodd" d="M12.622 9.50404C12.4631 9.64928 12.3587 9.85352 12.3587 10.085V11.787C12.3587 12.2182 12.7173 12.5767 13.1485 12.5767H13.6704C14.1061 12.5767 14.4602 12.2227 14.4602 11.787V10.085C14.4602 9.96698 14.4329 9.85806 14.3875 9.7582C14.8187 9.74913 15.259 9.69466 15.6947 9.57666C17.1062 9.19541 18.2409 8.28767 18.9353 7.1303C18.427 7.48885 17.8506 7.76571 17.2197 7.93365C14.3331 8.7143 11.3693 7.02137 10.5887 4.15291C10.1938 2.69145 10.4434 1.20729 11.1696 0C9.37228 1.27084 8.46454 3.55834 9.06819 5.79592C9.56291 7.61594 10.9427 8.96393 12.622 9.50404Z" fill="white"/>
<path fill-rule="evenodd" clip-rule="evenodd" d="M49.9665 39.9587H49.44C49.2313 39.9587 49.0361 39.8725 48.8954 39.7363C48.4279 39.9043 48.092 40.3536 48.092 40.871V43.4717C48.092 44.1389 48.6367 44.679 49.2993 44.679H50.1027C50.7653 44.679 51.3145 44.1389 51.3145 43.4717V40.871C51.3145 40.3491 50.9787 39.9043 50.5112 39.7363C50.3705 39.8725 50.1753 39.9587 49.962 39.9587H49.9665Z" fill="white"/>
<path fill-rule="evenodd" clip-rule="evenodd" d="M48.918 36.6636C48.7546 36.8088 48.6502 37.013 48.6502 37.2491V38.9511C48.6502 39.3868 49.0088 39.7408 49.4399 39.7408H49.9664C50.4021 39.7408 50.7562 39.3868 50.7562 38.9511V37.2491C50.7562 37.131 50.7289 37.0221 50.6835 36.9223C51.1193 36.9132 51.555 36.8587 51.9952 36.7407C53.4113 36.3595 54.5369 35.4563 55.2313 34.2944C54.7275 34.6529 54.1511 34.9298 53.5157 35.0977C50.6291 35.8784 47.6608 34.1854 46.8846 31.317C46.4898 29.8555 46.7394 28.3714 47.4611 27.1641C45.6637 28.4304 44.756 30.7224 45.3642 32.96C45.8589 34.78 47.2387 36.1235 48.918 36.6636Z" fill="white"/>
<path d="M49.9303 98.0677C49.717 97.7999 49.5128 97.5231 49.3131 97.2371C49.1224 96.9603 49.0044 96.6743 48.9953 96.3975C47.1935 97.8589 46.2903 98.7621 46.2903 99.1343C46.2903 99.6018 46.6307 99.9649 47.3024 100.242C48.2601 100.637 49.0407 101.222 49.6172 102.012C50.416 100.786 50.8199 99.9785 50.8199 99.57C50.8199 99.3476 50.7246 99.1025 50.543 98.8574C50.3615 98.5897 50.1573 98.3355 49.9349 98.0677H49.9303Z" fill="white"/>
<path d="M55.2724 98.0677C55.059 97.7999 54.8457 97.5231 54.6551 97.2371C54.4509 96.9603 54.3465 96.6743 54.3374 96.3975C52.5264 97.8589 51.6323 98.7621 51.6323 99.1343C51.6323 99.6018 51.9636 99.9649 52.6445 100.242C53.6021 100.637 54.3692 101.222 54.9592 102.012C55.758 100.786 56.1619 99.9785 56.1619 99.57C56.1619 99.3476 56.0666 99.1025 55.8851 98.8574C55.7035 98.5897 55.4993 98.3355 55.2769 98.0677H55.2724Z" fill="white"/>
<path d="M71.9113 98.0677C71.698 97.7999 71.4846 97.5231 71.294 97.2371C71.0898 96.9603 70.9854 96.6743 70.9763 96.3975C69.1654 97.8589 68.2712 98.7621 68.2712 99.1343C68.2712 99.6018 68.6026 99.9649 69.2834 100.242C70.241 100.637 71.0081 101.222 71.5981 102.012C72.3969 100.786 72.8009 99.9785 72.8009 99.57C72.8009 99.3476 72.7055 99.1025 72.524 98.8574C72.3425 98.5897 72.1382 98.3355 71.9158 98.0677H71.9113Z" fill="white"/>
<path d="M26.5424 98.0677C26.3291 97.7999 26.1157 97.5231 25.9251 97.2371C25.7209 96.9603 25.6165 96.6743 25.6074 96.3975C23.7965 97.8589 22.9023 98.7621 22.9023 99.1343C22.9023 99.6018 23.2337 99.9649 23.9145 100.242C24.8721 100.637 25.6392 101.222 26.2292 102.012C27.028 100.786 27.432 99.9785 27.432 99.57C27.432 99.3476 27.3367 99.1025 27.1551 98.8574C26.9736 98.5897 26.7693 98.3355 26.5469 98.0677H26.5424Z" fill="white"/>
<path d="M112.056 90.6062C111.797 90.1751 111.58 89.6577 111.412 89.0586C111.062 87.234 111.017 84.8058 111.017 82.8905C111.017 82.196 111.021 79.2958 111.03 78.6105V78.2338C111.049 76.7859 111.062 75.4152 111.021 74.2352V74.1716C111.117 72.4333 110.876 69.4423 108.353 68.0988L106.955 67.3545L107.663 68.7706C108.806 71.0581 108.752 74.3305 108.702 77.4985C108.693 78.1611 108.679 78.8147 108.679 79.4547C108.679 79.8858 108.679 82.5001 108.679 82.8905C108.72 89.3763 109.124 90.107 111.384 91.3143L113 92.1766L112.052 90.6062H112.056Z" fill="white"/>
<path d="M105.829 86.3084C105.756 85.1374 105.743 83.9301 105.743 82.8862C105.743 82.1827 105.752 79.2825 105.752 78.6017L105.761 78.2295L105.72 72.7831C105.72 72.656 105.711 72.5289 105.697 72.3973C105.665 72.1295 105.625 71.8526 105.547 71.5758C105.248 70.2323 104.558 68.8798 103.074 68.09L101.676 67.3457L102.379 68.7618C103.532 71.0402 103.478 74.3262 103.423 77.4897C103.414 78.1523 103.401 78.8014 103.401 79.4504V82.8817C103.405 84.1979 103.432 85.269 103.487 86.1632C103.537 87.0482 102.997 87.8515 102.157 88.1329L100.845 88.5732C100.823 88.5187 100.791 88.4688 100.773 88.4143L99.216 85.1102C98.6623 83.9483 98.1811 83.3719 97.7999 83.3719H86.0311V83.3809H85.6997C84.8419 83.3809 84.0522 83.971 83.9206 84.8152C83.7526 85.8908 84.5741 86.8122 85.618 86.8122H95.6803L96.6289 88.7003H73.999C74.008 88.6367 74.0217 88.487 74.0217 88.2419C74.0217 87.4521 73.6177 86.2403 72.7962 84.5655L71.2848 81.5382C70.6222 80.2175 70.2954 79.2779 70.2954 78.7151C70.2954 78.234 70.3998 77.6395 70.6131 76.9133L67.7356 79.6637C66.9912 80.5034 66.6054 81.4111 66.6054 82.328C66.6054 82.8726 67.0003 83.9256 67.79 85.505L68.8112 87.5611C69.0336 88.0104 69.2288 88.3826 69.3876 88.7003H64.6765C64.6765 88.6594 64.6855 88.5414 64.6855 88.3508C64.6855 87.7335 64.3769 86.785 63.7279 85.4733L62.5433 83.095C62.0304 82.0738 61.7762 81.3385 61.7762 80.8983C61.7762 80.5261 61.8489 80.0586 62.0213 79.4913L59.7747 81.6335C59.1892 82.2962 58.8896 82.9997 58.8896 83.7213C58.8896 84.148 59.1983 84.9695 59.8155 86.204L60.6143 87.8152C60.7959 88.1556 60.932 88.4461 61.0637 88.7003H56.7882C56.6157 88.251 56.4024 87.7426 56.1165 87.1435L54.5824 84.1162C53.9334 82.8045 53.6111 81.8786 53.6111 81.3022C53.6111 80.8347 53.7155 80.2265 53.9288 79.514L51.0513 82.2417C50.2298 83.0315 49.9212 83.98 49.9212 84.915C49.9212 85.446 50.316 86.5126 51.1058 88.0921L52.127 90.1391C52.6489 91.183 52.894 91.8638 52.894 92.1406C52.894 92.4901 52.7669 92.8441 52.5082 93.1936L50.1209 90.7654C48.791 89.4129 47.8197 88.7321 47.2524 88.7094C47.2297 88.7003 47.2206 88.7003 47.2116 88.7003H45.6684V88.7094H3.24971C2.45998 87.8016 2.07872 86.971 2.07872 86.2176C2.07872 83.8847 3.18617 82.7137 5.39198 82.7137C5.7233 82.7137 6.07278 82.7546 6.45857 82.8544C6.84436 82.9407 7.2483 83.0678 7.66132 83.2175C8.08796 83.39 8.52368 83.5489 8.97301 83.7395C9.42234 83.9301 9.85806 84.1344 10.2847 84.325L3.46303 77.5669L1.1846 82.1283C0.394867 83.685 0 85.0149 0 86.1359C0 86.4536 0.0317709 86.7759 0.10439 87.0845C0.340402 88.2873 1.07567 89.4719 2.2875 90.6111C3.32233 91.5914 4.69755 92.1452 6.12271 92.1452H47.3069C47.6563 92.1452 48.0739 92.3176 48.5323 92.6444C48.9998 92.9848 49.4491 93.4024 49.8985 93.9016C50.3342 94.3918 50.729 94.9047 51.0604 95.4675C51.4008 96.0121 51.605 96.4887 51.7003 96.9063L55.2496 93.5476C55.6672 93.1528 56.0076 92.8123 56.2526 92.5355C56.3707 92.4084 56.475 92.2813 56.5704 92.1406H97.5957C97.5957 92.1406 101.572 91.9682 102.538 91.6504C103.614 91.5551 104.363 91.0876 104.862 90.4885C105.606 89.6353 105.842 88.496 105.842 87.7835V87.7517L105.833 86.3039L105.829 86.3084Z" fill="white"/>
</svg>
