<svg width="260" height="235" viewBox="0 0 260 235" fill="none" xmlns="http://www.w3.org/2000/svg">
<path fill-rule="evenodd" clip-rule="evenodd" d="M118.09 100.46V100.533C118.09 102.079 116.816 103.332 115.291 103.332H113.453C111.908 103.332 110.655 102.079 110.655 100.533V100.46C89.0793 110.047 77.9888 117.649 72.1302 128.165C66.4283 138.441 66.0524 150.733 66.0315 169.791H49.8761V137.282L44.947 134.316L40.0388 131.329L44.947 128.343L49.8761 125.377V94.1837L44.947 91.197L40.0388 88.2103L44.947 85.2444L49.8761 82.2577V49.5189L40.3625 44.193L33.4701 40.3186C33.0002 40.6841 32.4154 40.9034 31.7784 40.9034H29.9404C29.3034 40.9034 28.7186 40.6841 28.2278 40.3186L21.3667 44.193L11.8531 49.5189V82.2577L16.7613 85.2444L21.6904 88.2103L16.7613 91.197L11.8531 94.1837V125.377L16.7613 128.343L21.6904 131.329L16.7613 134.316L11.8531 137.282V177.373L19.0588 184.557V141.031L24.9486 137.627L30.8594 134.243L36.7701 137.627L42.6809 141.031V176.976H79.6492H155.058C155.298 176.631 155.57 176.287 155.862 175.942L162.462 169.645C162.442 130.369 161.209 119.623 118.111 100.449L118.09 100.46ZM19.0483 78.6549V54.3018L24.9382 50.8974L30.849 47.493L36.7597 50.8974L42.6705 54.3018V78.6549L36.7597 82.0593L30.849 85.4638L24.9382 82.0593L19.0483 78.6549ZM30.8385 129.22L24.9278 125.816L19.0379 122.411V98.058L24.9278 94.6536L30.8385 91.2492L36.7493 94.6536L42.66 98.058V122.411L36.7493 125.816L30.8385 129.22ZM79.6283 169.802H73.2372C73.2581 151.86 73.5818 140.363 78.4065 131.653C83.4609 122.61 93.8099 115.738 114.351 106.694C154.045 124.197 155.225 133.94 155.278 169.812H79.6388L79.6283 169.802Z" fill="#00454A"/>
<path fill-rule="evenodd" clip-rule="evenodd" d="M31.4543 29.4593H30.2534C29.7625 29.4593 29.3239 29.2609 28.9898 28.9476C27.9141 29.334 27.1413 30.3574 27.1413 31.5584V37.5422C27.1413 39.0669 28.3945 40.3201 29.9192 40.3201H31.7676C33.3027 40.3201 34.5559 39.0669 34.5559 37.5422V31.5584C34.5559 30.3574 33.7831 29.334 32.7075 28.9476C32.3733 29.2609 31.9347 29.4593 31.4439 29.4593H31.4543Z" fill="#00454A"/>
<path fill-rule="evenodd" clip-rule="evenodd" d="M29.0419 21.8677C28.6764 22.2018 28.4362 22.6718 28.4362 23.2044V27.1205C28.4362 28.1126 29.2612 28.9376 30.2533 28.9376H31.4542C32.4567 28.9376 33.2713 28.123 33.2713 27.1205V23.2044C33.2713 22.9328 33.2086 22.6822 33.1042 22.4525C34.0963 22.4316 35.1093 22.3063 36.1118 22.0347C39.3596 21.1575 41.9703 19.0689 43.5681 16.406C42.3985 17.231 41.0722 17.868 39.6206 18.2544C32.9789 20.0506 26.1596 16.1553 24.3634 9.55535C23.4549 6.1927 24.0292 2.77784 25.7001 0C21.5647 2.92404 19.4761 8.18732 20.865 13.3357C22.0033 17.5234 25.178 20.6249 29.0419 21.8677Z" fill="#00454A"/>
<path fill-rule="evenodd" clip-rule="evenodd" d="M114.967 91.9419H113.756C113.276 91.9419 112.827 91.7435 112.503 91.4302C111.427 91.8166 110.654 92.8504 110.654 94.0409V100.025C110.654 101.56 111.908 102.803 113.432 102.803H115.281C116.805 102.803 118.069 101.56 118.069 100.025V94.0409C118.069 92.84 117.296 91.8166 116.221 91.4302C115.897 91.7435 115.448 91.9419 114.957 91.9419H114.967Z" fill="#00454A"/>
<path fill-rule="evenodd" clip-rule="evenodd" d="M112.555 84.3575C112.179 84.6916 111.939 85.1616 111.939 85.7046V89.6207C111.939 90.6233 112.764 91.4378 113.756 91.4378H114.967C115.97 91.4378 116.784 90.6233 116.784 89.6207V85.7046C116.784 85.4331 116.721 85.1825 116.617 84.9527C117.62 84.9318 118.622 84.8065 119.635 84.535C122.893 83.6578 125.483 81.5796 127.081 78.9062C125.922 79.7312 124.596 80.3682 123.134 80.7546C116.492 82.5508 109.662 78.6556 107.876 72.0556C106.968 68.6929 107.542 65.2781 109.203 62.5002C105.067 65.4138 102.978 70.6876 104.378 75.836C105.516 80.0236 108.691 83.1147 112.555 84.3575Z" fill="#00454A"/>
<path d="M114.883 225.641C114.392 225.024 113.923 224.387 113.463 223.729C113.024 223.092 112.753 222.435 112.732 221.797C108.586 225.16 106.508 227.238 106.508 228.095C106.508 229.17 107.291 230.006 108.837 230.643C111.04 231.551 112.836 232.898 114.163 234.715C116.001 231.896 116.93 230.037 116.93 229.097C116.93 228.585 116.711 228.022 116.293 227.458C115.875 226.841 115.405 226.257 114.894 225.641H114.883Z" fill="#00454A"/>
<path d="M127.175 225.641C126.684 225.024 126.193 224.387 125.754 223.729C125.284 223.092 125.044 222.435 125.023 221.797C120.857 225.16 118.799 227.238 118.799 228.095C118.799 229.17 119.562 230.006 121.128 230.643C123.332 231.551 125.097 232.898 126.454 234.715C128.292 231.896 129.221 230.037 129.221 229.097C129.221 228.585 129.002 228.022 128.584 227.458C128.167 226.841 127.697 226.257 127.185 225.641H127.175Z" fill="#00454A"/>
<path d="M165.46 225.641C164.969 225.024 164.478 224.387 164.04 223.729C163.57 223.092 163.329 222.435 163.309 221.797C159.142 225.16 157.084 227.238 157.084 228.095C157.084 229.17 157.847 230.006 159.413 230.643C161.617 231.551 163.382 232.898 164.739 234.715C166.577 231.896 167.507 230.037 167.507 229.097C167.507 228.585 167.287 228.022 166.87 227.458C166.452 226.841 165.982 226.257 165.47 225.641H165.46Z" fill="#00454A"/>
<path d="M61.0705 225.641C60.5797 225.024 60.0889 224.387 59.6503 223.729C59.1803 223.092 58.9401 222.435 58.9193 221.797C54.7525 225.16 52.6952 227.238 52.6952 228.095C52.6952 229.17 53.4576 230.006 55.024 230.643C57.2275 231.551 58.9924 232.898 60.3499 234.715C62.1879 231.896 63.1173 230.037 63.1173 229.097C63.1173 228.585 62.898 228.022 62.4803 227.458C62.0626 226.841 61.5927 226.257 61.081 225.641H61.0705Z" fill="#00454A"/>
<path d="M257.828 208.475C257.233 207.483 256.731 206.292 256.345 204.914C255.541 200.716 255.436 195.129 255.436 190.722C255.436 189.124 255.447 182.451 255.468 180.874V180.007C255.509 176.676 255.541 173.522 255.447 170.807V170.661C255.666 166.661 255.113 159.779 249.306 156.688L246.09 154.975L247.719 158.233C250.351 163.497 250.225 171.026 250.11 178.315C250.09 179.84 250.058 181.344 250.058 182.816C250.058 183.808 250.058 189.823 250.058 190.722C250.152 205.645 251.082 207.326 256.282 210.104L260 212.088L257.817 208.475H257.828Z" fill="#00454A"/>
<path d="M243.5 198.583C243.333 195.889 243.302 193.111 243.302 190.709C243.302 189.091 243.322 182.418 243.322 180.851L243.343 179.995L243.249 167.463C243.249 167.171 243.228 166.878 243.197 166.575C243.124 165.959 243.03 165.322 242.852 164.685C242.163 161.594 240.576 158.482 237.161 156.665L233.945 154.952L235.563 158.211C238.216 163.453 238.09 171.014 237.965 178.293C237.944 179.817 237.913 181.311 237.913 182.804V190.699C237.923 193.727 237.986 196.192 238.111 198.249C238.226 200.286 236.984 202.134 235.052 202.781L232.034 203.794C231.981 203.669 231.908 203.554 231.866 203.429L228.284 195.826C227.01 193.153 225.903 191.827 225.026 191.827H197.947V191.848H197.185C195.211 191.848 193.394 193.205 193.091 195.148C192.705 197.623 194.595 199.742 196.997 199.742H220.149L222.332 204.087H170.263C170.284 203.941 170.315 203.596 170.315 203.032C170.315 201.215 169.386 198.427 167.496 194.573L164.018 187.608C162.493 184.569 161.742 182.407 161.742 181.112C161.742 180.005 161.982 178.637 162.473 176.966L155.852 183.295C154.139 185.227 153.251 187.315 153.251 189.425C153.251 190.678 154.16 193.101 155.977 196.735L158.327 201.466C158.838 202.499 159.287 203.356 159.653 204.087H148.813C148.813 203.993 148.834 203.721 148.834 203.283C148.834 201.862 148.124 199.68 146.63 196.662L143.905 191.19C142.725 188.84 142.14 187.148 142.14 186.135C142.14 185.279 142.307 184.203 142.704 182.898L137.535 187.827C136.187 189.352 135.498 190.97 135.498 192.631C135.498 193.612 136.208 195.503 137.629 198.343L139.467 202.05C139.884 202.834 140.198 203.502 140.5 204.087H130.663C130.266 203.053 129.775 201.883 129.118 200.505L125.588 193.539C124.094 190.521 123.353 188.391 123.353 187.065C123.353 185.989 123.593 184.59 124.084 182.95L117.463 189.226C115.573 191.043 114.863 193.226 114.863 195.377C114.863 196.599 115.771 199.053 117.588 202.687L119.938 207.397C121.139 209.799 121.703 211.366 121.703 212.003C121.703 212.807 121.411 213.621 120.815 214.425L115.322 208.838C112.262 205.726 110.028 204.16 108.722 204.108C108.67 204.087 108.649 204.087 108.628 204.087H105.078V204.108H7.4772C5.66012 202.019 4.7829 200.108 4.7829 198.374C4.7829 193.007 7.331 190.312 12.4063 190.312C13.1687 190.312 13.9728 190.406 14.8604 190.636C15.7481 190.835 16.6775 191.127 17.6278 191.472C18.6095 191.868 19.612 192.234 20.6459 192.673C21.6797 193.111 22.6822 193.581 23.6639 194.02L7.96803 178.47L2.72563 188.965C0.908543 192.547 0 195.607 0 198.186C0 198.917 0.0731012 199.659 0.24019 200.369C0.783227 203.136 2.475 205.862 5.26328 208.483C7.64429 210.739 10.8085 212.013 14.0876 212.013H108.848C109.652 212.013 110.612 212.41 111.667 213.162C112.743 213.945 113.777 214.906 114.811 216.054C115.813 217.182 116.722 218.362 117.484 219.657C118.267 220.91 118.737 222.007 118.956 222.968L127.123 215.24C128.084 214.331 128.867 213.548 129.431 212.911C129.702 212.619 129.943 212.326 130.162 212.003H224.556C224.556 212.003 233.704 211.606 235.929 210.875C238.404 210.655 240.127 209.58 241.276 208.201C242.988 206.238 243.531 203.617 243.531 201.977V201.904L243.51 198.573L243.5 198.583Z" fill="#00454A"/>
</svg>
