<svg width="260" height="235" viewBox="0 0 260 235" fill="none" xmlns="http://www.w3.org/2000/svg">
<path fill-rule="evenodd" clip-rule="evenodd" d="M118.09 100.462V100.535C118.09 102.081 116.816 103.334 115.291 103.334H113.453C111.908 103.334 110.654 102.081 110.654 100.535V100.462C89.0791 110.049 77.9886 117.651 72.13 128.167C66.4282 138.443 66.0522 150.735 66.0313 169.793H49.876V137.284L44.9469 134.318L40.0386 131.332L44.9469 128.345L49.876 125.379V94.1857L44.9469 91.199L40.0386 88.2123L44.9469 85.2465L49.876 82.2597V49.5209L40.3624 44.1949L33.47 40.3206C33 40.6861 32.4152 40.9054 31.7782 40.9054H29.9402C29.3032 40.9054 28.7184 40.6861 28.2276 40.3206L21.3665 44.1949L11.8529 49.5209V82.2597L16.7611 85.2465L21.6902 88.2123L16.7611 91.199L11.8529 94.1857V125.379L16.7611 128.345L21.6902 131.332L16.7611 134.318L11.8529 137.284V177.375L19.0586 184.56V141.033L24.9485 137.629L30.8592 134.245L36.77 137.629L42.6807 141.033V176.978H79.649H155.058C155.298 176.633 155.57 176.289 155.862 175.944L162.462 169.647C162.441 130.371 161.209 119.625 118.111 100.451L118.09 100.462ZM19.0481 78.6569V54.3038L24.938 50.8993L30.8488 47.4949L36.7595 50.8993L42.6703 54.3038V78.6569L36.7595 82.0613L30.8488 85.4658L24.938 82.0613L19.0481 78.6569ZM30.8383 129.222L24.9276 125.818L19.0377 122.413V98.06L24.9276 94.6556L30.8383 91.2512L36.7491 94.6556L42.6598 98.06V122.413L36.7491 125.818L30.8383 129.222ZM79.6281 169.804H73.237C73.2579 151.862 73.5816 140.365 78.4063 131.655C83.4607 122.612 93.8098 115.74 114.351 106.696C154.045 124.199 155.225 133.942 155.277 169.814H79.6386L79.6281 169.804Z" fill="#D4A10F"/>
<path fill-rule="evenodd" clip-rule="evenodd" d="M31.4545 29.4597H30.2536C29.7627 29.4597 29.3241 29.2613 28.99 28.948C27.9143 29.3344 27.1415 30.3578 27.1415 31.5588V37.5426C27.1415 39.0673 28.3947 40.3205 29.9194 40.3205H31.7678C33.3029 40.3205 34.5561 39.0673 34.5561 37.5426V31.5588C34.5561 30.3578 33.7833 29.3344 32.7077 28.948C32.3735 29.2613 31.9349 29.4597 31.4441 29.4597H31.4545Z" fill="#D4A10F"/>
<path fill-rule="evenodd" clip-rule="evenodd" d="M29.0422 21.8677C28.6767 22.2019 28.4365 22.6718 28.4365 23.2044V27.1205C28.4365 28.1126 29.2615 28.9376 30.2536 28.9376H31.4545C32.457 28.9376 33.2716 28.1231 33.2716 27.1205V23.2044C33.2716 22.9329 33.2089 22.6823 33.1045 22.4525C34.0966 22.4316 35.1096 22.3063 36.1121 22.0348C39.3599 21.1576 41.9706 19.069 43.5684 16.406C42.3988 17.231 41.0725 17.868 39.621 18.2544C32.9792 20.0506 26.1599 16.1554 24.3637 9.55537C23.4552 6.19271 24.0295 2.77784 25.7004 0C21.565 2.92405 19.4764 8.18733 20.8653 13.3357C22.0036 17.5234 25.1783 20.625 29.0422 21.8677Z" fill="#D4A10F"/>
<path fill-rule="evenodd" clip-rule="evenodd" d="M114.967 91.9404H113.756C113.276 91.9404 112.827 91.742 112.503 91.4287C111.427 91.8151 110.654 92.849 110.654 94.0395V100.023C110.654 101.558 111.908 102.801 113.432 102.801H115.281C116.805 102.801 118.069 101.558 118.069 100.023V94.0395C118.069 92.8385 117.296 91.8151 116.22 91.4287C115.897 91.742 115.448 91.9404 114.957 91.9404H114.967Z" fill="#D4A10F"/>
<path fill-rule="evenodd" clip-rule="evenodd" d="M112.555 84.3588C112.179 84.693 111.939 85.1629 111.939 85.706V89.6221C111.939 90.6246 112.764 91.4392 113.756 91.4392H114.967C115.97 91.4392 116.785 90.6246 116.785 89.6221V85.706C116.785 85.4345 116.722 85.1838 116.617 84.9541C117.62 84.9332 118.622 84.8079 119.635 84.5364C122.894 83.6592 125.484 81.581 127.081 78.9076C125.922 79.7326 124.596 80.3696 123.134 80.756C116.492 82.5522 109.662 78.6569 107.877 72.057C106.968 68.6943 107.542 65.2794 109.203 62.5016C105.067 65.4152 102.979 70.6889 104.378 75.8373C105.516 80.025 108.691 83.1161 112.555 84.3588Z" fill="#D4A10F"/>
<path d="M114.884 225.642C114.393 225.026 113.923 224.389 113.463 223.731C113.025 223.094 112.753 222.436 112.732 221.799C108.587 225.162 106.508 227.24 106.508 228.096C106.508 229.172 107.292 230.008 108.837 230.645C111.041 231.553 112.837 232.9 114.163 234.717C116.001 231.898 116.931 230.039 116.931 229.099C116.931 228.587 116.711 228.023 116.293 227.459C115.876 226.843 115.406 226.258 114.894 225.642H114.884Z" fill="#D4A10F"/>
<path d="M127.175 225.642C126.684 225.026 126.194 224.389 125.755 223.731C125.285 223.094 125.045 222.436 125.024 221.799C120.857 225.162 118.8 227.24 118.8 228.096C118.8 229.172 119.562 230.008 121.129 230.645C123.332 231.553 125.097 232.9 126.455 234.717C128.293 231.898 129.222 230.039 129.222 229.099C129.222 228.587 129.003 228.023 128.585 227.459C128.167 226.843 127.697 226.258 127.186 225.642H127.175Z" fill="#D4A10F"/>
<path d="M165.459 225.642C164.968 225.026 164.478 224.389 164.039 223.731C163.569 223.094 163.329 222.436 163.308 221.799C159.141 225.162 157.084 227.24 157.084 228.096C157.084 229.172 157.846 230.008 159.413 230.645C161.616 231.553 163.381 232.9 164.739 234.717C166.577 231.898 167.506 230.039 167.506 229.099C167.506 228.587 167.287 228.023 166.869 227.459C166.451 226.843 165.981 226.258 165.47 225.642H165.459Z" fill="#D4A10F"/>
<path d="M61.0708 225.642C60.58 225.026 60.0892 224.389 59.6505 223.731C59.1806 223.094 58.9404 222.436 58.9195 221.799C54.7528 225.162 52.6955 227.24 52.6955 228.096C52.6955 229.172 53.4578 230.008 55.0243 230.645C57.2278 231.553 58.9926 232.9 60.3502 234.717C62.1882 231.898 63.1176 230.039 63.1176 229.099C63.1176 228.587 62.8983 228.023 62.4806 227.459C62.0629 226.843 61.593 226.258 61.0812 225.642H61.0708Z" fill="#D4A10F"/>
<path d="M257.828 208.474C257.233 207.482 256.731 206.292 256.345 204.913C255.541 200.715 255.436 195.128 255.436 190.721C255.436 189.123 255.447 182.45 255.468 180.873V180.007C255.51 176.675 255.541 173.521 255.447 170.806V170.66C255.666 166.66 255.113 159.778 249.306 156.687L246.09 154.975L247.719 158.233C250.351 163.496 250.225 171.026 250.111 178.315C250.09 179.839 250.058 181.343 250.058 182.816C250.058 183.808 250.058 189.823 250.058 190.721C250.152 205.644 251.082 207.325 256.282 210.103L260 212.088L257.817 208.474H257.828Z" fill="#D4A10F"/>
<path d="M243.5 198.584C243.333 195.89 243.302 193.112 243.302 190.71C243.302 189.092 243.322 182.419 243.322 180.852L243.343 179.996L243.249 167.464C243.249 167.172 243.228 166.879 243.197 166.577C243.124 165.96 243.03 165.323 242.853 164.686C242.163 161.595 240.576 158.483 237.161 156.666L233.945 154.953L235.563 158.212C238.216 163.454 238.091 171.015 237.965 178.294C237.944 179.818 237.913 181.312 237.913 182.805V190.7C237.923 193.728 237.986 196.193 238.111 198.25C238.226 200.287 236.984 202.135 235.052 202.783L232.034 203.796C231.981 203.67 231.908 203.555 231.866 203.43L228.285 195.827C227.01 193.154 225.904 191.828 225.026 191.828H197.948V191.849H197.185C195.211 191.849 193.394 193.206 193.092 195.149C192.705 197.624 194.595 199.744 196.997 199.744H220.149L222.332 204.088H170.263C170.284 203.942 170.315 203.597 170.315 203.033C170.315 201.216 169.386 198.428 167.496 194.574L164.018 187.609C162.493 184.57 161.742 182.408 161.742 181.113C161.742 180.006 161.982 178.638 162.473 176.967L155.852 183.296C154.139 185.228 153.251 187.316 153.251 189.426C153.251 190.679 154.16 193.102 155.977 196.736L158.327 201.467C158.838 202.501 159.287 203.357 159.653 204.088H148.813C148.813 203.994 148.834 203.722 148.834 203.284C148.834 201.864 148.124 199.681 146.631 196.663L143.905 191.191C142.725 188.841 142.14 187.149 142.14 186.136C142.14 185.28 142.307 184.204 142.704 182.899L137.535 187.828C136.187 189.353 135.498 190.971 135.498 192.632C135.498 193.614 136.208 195.504 137.629 198.344L139.467 202.052C139.884 202.835 140.198 203.503 140.5 204.088H130.663C130.266 203.054 129.775 201.884 129.118 200.506L125.588 193.54C124.094 190.522 123.353 188.392 123.353 187.066C123.353 185.99 123.593 184.591 124.084 182.951L117.463 189.228C115.573 191.045 114.863 193.227 114.863 195.378C114.863 196.6 115.771 199.054 117.588 202.689L119.938 207.398C121.139 209.8 121.703 211.367 121.703 212.004C121.703 212.808 121.411 213.622 120.815 214.427L115.322 208.84C112.263 205.727 110.028 204.161 108.722 204.109C108.67 204.088 108.649 204.088 108.628 204.088H105.078V204.109H7.47721C5.66012 202.02 4.78291 200.109 4.78291 198.376C4.78291 193.008 7.331 190.314 12.4063 190.314C13.1687 190.314 13.9728 190.408 14.8604 190.637C15.7481 190.836 16.6775 191.128 17.6278 191.473C18.6095 191.87 19.612 192.235 20.6459 192.674C21.6797 193.112 22.6822 193.582 23.6639 194.021L7.96803 178.471L2.72563 188.966C0.908543 192.548 0 195.608 0 198.188C0 198.919 0.0731012 199.66 0.24019 200.37C0.783227 203.138 2.475 205.863 5.26328 208.484C7.64429 210.74 10.8085 212.014 14.0876 212.014H108.848C109.652 212.014 110.613 212.411 111.667 213.163C112.743 213.946 113.777 214.907 114.811 216.056C115.813 217.183 116.722 218.364 117.484 219.658C118.267 220.912 118.737 222.008 118.956 222.969L127.123 215.241C128.084 214.333 128.867 213.549 129.431 212.912C129.702 212.62 129.943 212.327 130.162 212.004H224.556C224.556 212.004 233.704 211.607 235.929 210.876C238.404 210.657 240.127 209.581 241.276 208.202C242.988 206.239 243.531 203.618 243.531 201.978V201.905L243.51 198.574L243.5 198.584Z" fill="#D4A10F"/>
</svg>
